<svg width="100" height="26" viewBox="0 -1 100 26" fill="none" xmlns="http://www.w3.org/2000/svg">
<path d="M32.6289 13.8078L35.1143 16.91L38.2437 14.4155L35.7583 11.3179L32.6289 13.8078Z" fill="white"/>
<path d="M26.2838 3.77569C27.2407 3.77569 27.8485 4.37889 27.8485 5.24514C27.8485 5.97987 27.5582 6.49236 26.5332 7.19534L26.0253 7.54456L25.6761 7.12731C25.0683 6.39258 24.8189 6.07511 24.8189 5.20432C24.8189 4.28365 25.5808 3.77115 26.2838 3.77115M24.5286 13.3543L25.1001 12.9371L33.1049 22.874H38.3977L28.3882 10.4472C30.1434 9.13647 31.9303 7.92099 31.9303 5.04559C31.9303 1.31753 28.7737 0.0703125 26.3518 0.0703125C22.5195 0.0703125 20.6373 2.55568 20.6373 5.18165C20.6373 7.32233 21.4627 8.46977 22.6464 9.87573L21.8482 10.42C19.6486 11.9847 17.9297 14.0573 17.9297 16.6787C17.9297 19.7764 19.9978 23.3911 24.5921 23.3911C27.4584 23.3911 29.1819 22.1438 30.2386 21.2504L27.7215 18.0892C27.1818 18.57 26.3155 19.3047 25.0729 19.3047C23.8619 19.3047 22.2972 18.4067 22.2972 16.6515C22.2972 15.3091 23.2905 14.1888 24.5331 13.3634" fill="white"/>
<path d="M8.96184 18.7245H4.58977V13.6404H8.73961C10.4948 13.6404 11.8372 14.3434 11.8372 16.1666C11.8372 17.8946 10.5946 18.72 8.96184 18.72M4.5943 4.66498H8.68065C10.4948 4.66498 11.6105 5.43145 11.6105 7.02789C11.6105 8.59259 10.2998 9.49058 8.68065 9.49058H4.5943V4.66498ZM13.2024 11.5632C15.4655 10.4203 16.105 8.40664 16.1095 6.58343C16.1095 2.43359 13.5244 0.515137 8.96638 0.515137H0V22.8744H9.05708C13.7738 22.8744 16.4225 20.2257 16.4225 16.4569C16.4225 14.3525 15.4338 12.4023 13.2024 11.5678" fill="white"/>
<path d="M46.6074 18.7335H43.927V4.67391H46.6074C51.2017 4.67391 51.3559 8.1888 51.3559 11.7354C51.3559 15.2821 51.1336 18.7335 46.6028 18.7335M46.7661 0.524067H39.3281V22.8788H46.7616C52.3718 22.8878 55.9139 19.7902 55.9184 13.9124V9.56301C55.9184 3.65345 52.3808 0.524067 46.7661 0.519531" fill="white"/>
<path d="M98.3956 21.137H97.1257L97.7697 19.2775L98.3911 21.137H98.3956ZM100.001 22.8785L98.1371 17.7808H97.357L95.502 22.8785H96.5406L96.849 21.976H98.6586L98.958 22.8785H99.9966H100.001ZM94.8716 22.8785V17.7808H93.8738V19.8671H92.1459V17.7808H91.1526V22.8785H92.1459V20.7424H93.8738V22.8785H94.8716ZM89.9644 22.8785V17.7808H89.0754L87.089 21.0462V17.7808H86.0957V22.8785H86.9847L88.9711 19.604V22.8785H89.9689H89.9644ZM89.207 16.4429H88.5675C88.5267 16.7014 88.3679 16.8511 88.0459 16.8511C87.7239 16.8511 87.5561 16.7014 87.5108 16.4429H86.8803C86.9438 17.1141 87.3293 17.5041 88.0414 17.5041C88.7534 17.5041 89.1389 17.1141 89.2115 16.4429M83.8643 21.1415H82.599L83.243 19.282L83.8643 21.1415ZM85.4699 22.8831L83.6058 17.7853H82.8257L80.9708 22.8831H82.0094L82.3178 21.9805H84.1319L84.4313 22.8831H85.4699ZM80.5989 21.4045C80.5989 20.8467 80.3132 20.443 79.8642 20.2435C80.2723 20.0258 80.5309 19.6403 80.5309 19.1459C80.5309 18.2842 79.778 17.7354 78.8483 17.7354C78.1906 17.7354 77.601 17.9033 77.1157 18.3296L77.7326 18.9555C78.0319 18.6924 78.3992 18.6062 78.8074 18.6062C79.2156 18.6062 79.5376 18.8194 79.5376 19.214C79.5376 19.6085 79.2791 19.8625 78.8437 19.8625H78.1997V20.6789H78.8392C79.2973 20.6789 79.6147 20.9374 79.6147 21.3819C79.6147 21.79 79.2428 22.035 78.8029 22.035C78.363 22.035 77.923 21.9125 77.5784 21.6041L76.9389 22.2481C77.4967 22.7787 78.0863 22.9193 78.8392 22.9193C79.8324 22.9193 80.608 22.3297 80.608 21.4M76.2178 22.8785V17.7808H75.3288L73.3423 21.0462V17.7808H72.3491V22.8785H73.2335L75.22 19.604V22.8785H76.2132H76.2178ZM69.9726 21.9896H68.3535C68.6709 21.1279 68.8841 20.3433 68.8841 18.833V18.6652H69.9726V21.9896ZM71.5554 24.0124V21.9896H70.9704V17.7808H67.9045V18.0076C67.9045 19.9714 67.7276 20.9828 67.3239 21.9896H66.816V24.0124H67.7729V22.8831H70.5985V24.0124H71.56H71.5554ZM64.4123 22.8831V17.7853H63.5233L61.5368 21.0508V17.7853H60.5391V22.8831H61.428L63.4145 19.6085V22.8831H64.4123Z" fill="white"/>
<path d="M90.0978 12.5387H88.8279L89.4719 10.6838L90.0933 12.5387H90.0978ZM91.7033 14.2803L89.8393 9.17803H89.0592L87.2042 14.2803H88.2428L88.5512 13.3732H90.3654L90.6647 14.2803H91.7033ZM86.8595 13.736L86.2019 13.0784C85.9207 13.3505 85.7484 13.4367 85.4491 13.4367C85.1769 13.4367 84.9683 13.3505 84.8096 13.1691C84.61 12.9469 84.5601 12.6702 84.5601 11.8584V11.5863C84.5601 11.101 84.5601 10.5704 84.8096 10.2892C84.9683 10.1078 85.1815 10.0261 85.4491 10.0261C85.7439 10.0261 85.9207 10.1078 86.2019 10.3799L86.8595 9.72227C86.5829 9.45922 86.4423 9.37305 86.2019 9.27327C85.9797 9.17803 85.7302 9.13721 85.4491 9.13721C84.8957 9.13721 84.4241 9.33223 84.0658 9.69505C83.6712 10.0987 83.5624 10.5023 83.5624 11.5273V11.736C83.5624 12.5841 83.5624 13.2598 84.0658 13.7723C84.4241 14.1352 84.9048 14.3302 85.4536 14.3302C85.7257 14.3302 85.9842 14.2803 86.1974 14.1941C86.4423 14.0943 86.5784 14.0082 86.855 13.7451M82.7551 14.2894V13.4004H80.3922V12.1623H82.4058V11.2779H80.3922V10.076H82.7551V9.1871H79.3989V14.2894H82.7551ZM78.2061 14.2894V9.1871H77.2083V11.2734H75.4804V9.1871H74.4871V14.2894H75.4804V12.1532H77.2083V14.2894H78.2061ZM73.4712 12.8108C73.4712 12.253 73.1855 11.8493 72.7365 11.6498C73.1447 11.4321 73.4032 11.0466 73.4032 10.5522C73.4032 9.69052 72.6503 9.14174 71.7206 9.14174C71.063 9.14174 70.4734 9.30955 69.9835 9.73587L70.6003 10.3663C70.8997 10.1032 71.267 10.0171 71.6752 10.0171C72.0834 10.0171 72.4054 10.2302 72.4054 10.6248C72.4054 11.0194 72.1469 11.2734 71.7115 11.2734H71.0675V12.0852H71.707C72.165 12.0852 72.4825 12.3437 72.4825 12.7882C72.4825 13.1918 72.1106 13.4412 71.6707 13.4412C71.2126 13.4412 70.7908 13.3188 70.4461 13.0104L69.8067 13.6544C70.3645 14.185 70.9541 14.3256 71.707 14.3256C72.7002 14.3256 73.4758 13.736 73.4758 12.8063M69.0855 14.2848V9.18256H68.1966L66.2101 12.448V9.18256H65.2124V14.2848H66.1013L68.0832 11.0103V14.2848H69.081H69.0855ZM63.2304 12.6929C63.2304 13.1192 62.9628 13.3959 62.5184 13.3959H61.5206V11.9945H62.5184C62.9628 11.9945 63.2304 12.2802 63.2304 12.6929ZM64.2282 12.6929C64.2282 11.7632 63.5978 11.1055 62.5728 11.1055H61.5251V10.0715H63.9016V9.18256H60.5273V14.2848H62.5682C63.6023 14.2848 64.2237 13.6227 64.2237 12.6929" fill="white"/>
<path d="M95.2026 1.46148V0.572556H91.5425V1.46148H92.8759V5.67482H93.8692V1.46148H95.2026ZM91.2976 0.572556H90.2681L89.3021 3.03071L88.2363 0.572556H87.1977L88.8304 4.11466L88.6807 4.46388C88.5855 4.67251 88.4222 4.78589 88.1501 4.78589H87.7465V5.67028H88.3542C88.9483 5.67028 89.2976 5.27117 89.4926 4.8131L91.2976 0.568021V0.572556ZM86.9482 1.46148V0.572556H83.2882V1.46148H84.6216V5.67482H85.6149V1.46148H86.9482ZM82.4764 5.67482V0.572556H81.5875L79.601 3.84254V0.572556H78.6077V5.67482H79.4967L81.4832 2.4003V5.67482H82.4764ZM77.7959 1.46148V0.572556H74.1359V1.46148H75.4693V5.67482H76.4625V1.46148H77.7959ZM73.6098 5.13058L72.9522 4.47295C72.671 4.74054 72.5032 4.82671 72.1993 4.82671C71.9272 4.82671 71.7186 4.74054 71.5598 4.56366C71.3603 4.34143 71.3104 4.06477 71.3104 3.25294V2.98082C71.3104 2.49554 71.3104 1.96491 71.5598 1.68372C71.7186 1.5023 71.9317 1.41613 72.1993 1.41613C72.4941 1.41613 72.671 1.5023 72.9522 1.77442L73.6098 1.1168C73.3331 0.853748 73.1925 0.767576 72.9522 0.667799C72.7299 0.572556 72.4805 0.531738 72.1993 0.531738C71.646 0.531738 71.1743 0.722223 70.816 1.08959C70.4214 1.49323 70.3126 1.90141 70.3126 2.91733V3.12596C70.3126 3.98314 70.3126 4.65437 70.816 5.16686C71.1743 5.52969 71.6551 5.72471 72.2038 5.72471C72.476 5.72471 72.7345 5.67482 72.9476 5.58865C73.1925 5.48887 73.3286 5.4027 73.6053 5.13965M69.2921 5.68389V0.572556H68.2989V2.65881H66.5709V0.572556H65.5732V5.67482H66.5709V3.54321H68.2989V5.67482H69.2921V5.68389ZM64.3849 5.68389V0.572556H63.496L61.5095 3.84254V0.572556H60.5117V5.67482H61.4006L63.3871 2.4003V5.67482H64.3849V5.68389Z" fill="white"/>
</svg>
